# xmcd
#
# Track frame offsets:
#	150
#	9247
#	19965
#	35277
#	48439
#	65527
#	78675
#	101192
#	115045
#	130035
#	143800
#	157287
#
# Disc length: 2315 seconds
#
# Revision: 1
# Processed by: cddbd v1.5.2PL0 Copyright (c) Steve Scherf et al.
# Submitted via: audiograbber 1.83.01
#
DISCID=9f09090c
DTITLE=West Virginian Road - Deep in the country
DYEAR=1900
DGENRE=Country
TTITLE0=Deep in the country
TTITLE1=I love them old songs
TTITLE2=If my dreams come true
TTITLE3=Jane
TTITLE4=I'm gonna love again
TTITLE5=Tight fitten jeans
TTITLE6=There's just tonight
TTITLE7=Wayward thoughts
TTITLE8=Whiskey on my mind
TTITLE9=Mamma by day
TTITLE10=What'll I do with me
TTITLE11=Deep in the country (Repr)
EXTD=
EXTT0=
EXTT1=
EXTT2=
EXTT3=
EXTT4=
EXTT5=
EXTT6=
EXTT7=
EXTT8=
EXTT9=
EXTT10=
EXTT11=
PLAYORDER=
